<svg width="48" height="48" viewBox="0 0 48 48" fill="none" xmlns="http://www.w3.org/2000/svg">
<g clip-path="url(#clip0)">
<path d="M21.8781 16.1527H18.0082V12.2828C18.0082 11.7453 17.5782 11.3153 17.0407 11.3153H12.2034C11.6659 11.3153 11.2359 11.7453 11.2359 12.2828V16.1527H7.36598C6.82849 16.1527 6.3985 16.5827 6.3985 17.1202V21.9576C6.3985 22.4951 6.82849 22.9251 7.36598 22.9251H11.2359V26.795C11.2359 27.3325 11.6659 27.7625 12.2034 27.7625H17.0407C17.5782 27.7625 18.0082 27.3325 18.0082 26.795V22.9251H21.8781C22.4156 22.9251 22.8456 22.4951 22.8456 21.9576V17.1202C22.8456 16.5827 22.4156 16.1527 21.8781 16.1527ZM20.9644 21.0439H17.0945C16.557 21.0439 16.127 21.4739 16.127 22.0113V25.8812H13.1708V22.0113C13.1708 21.4739 12.7408 21.0439 12.2034 21.0439H8.33345V18.0877H12.2034C12.7408 18.0877 13.1708 17.6577 13.1708 17.1202V13.2503H16.127V17.1202C16.127 17.6577 16.557 18.0877 17.0945 18.0877H20.9644V21.0439Z" fill="#F1D427"/>
<path d="M46.1188 21.5814H44.6138L38.9702 10.8317C38.809 10.5092 38.4865 10.2942 38.1102 10.2942H37.5728V9.91795C37.5728 8.19799 36.1753 6.80052 34.4553 6.80052C32.7354 6.80052 31.3379 8.19799 31.3379 9.91795V10.2942H30.3704V9.16546C30.3704 8.09049 29.5105 7.28426 28.4892 7.28426H1.88362C0.80865 7.28426 0.00241987 8.14424 0.00241987 9.16546V34.2124C-0.0513288 35.2873 0.80865 36.0936 1.88362 36.0936H7.25849C7.74223 38.996 10.2147 41.1997 13.2783 41.1997C16.342 41.1997 18.8145 38.996 19.2982 36.0936H28.4892C28.8117 36.0936 29.188 35.9861 29.4567 35.8248C29.7254 35.9861 30.0479 36.0936 30.4242 36.0936H31.7679C32.2516 38.996 34.7241 41.1997 37.7878 41.1997C40.7977 41.1997 43.3239 38.996 43.8076 36.0936H46.1188C47.1938 36.0936 48 35.2336 48 34.2124V23.4626C48 22.3876 47.14 21.5814 46.1188 21.5814ZM13.2246 39.3185C10.9134 39.3185 9.0322 37.4373 9.0322 35.1261C9.0322 32.8149 10.9134 30.9337 13.2246 30.9337C15.5358 30.9337 17.417 32.8149 17.417 35.1261C17.417 37.491 15.5358 39.3185 13.2246 39.3185ZM28.4355 23.4626V34.2124H19.2445C18.7607 31.3099 16.2883 29.1062 13.2246 29.1062C10.1609 29.1062 7.68848 31.3099 7.20474 34.2124H1.88362V9.16546H28.4355V23.4626ZM34.4553 8.68173C35.1541 8.68173 35.6916 9.21921 35.6916 9.91795V10.2942H33.2191V9.91795C33.2191 9.21921 33.7566 8.68173 34.4553 8.68173ZM30.3167 12.1754H32.2516H36.6053H37.519L42.3026 21.5277H30.3167V12.1754ZM37.6803 39.3185C35.3691 39.3185 33.4879 37.4373 33.4879 35.1261C33.4879 32.8149 35.3691 30.9337 37.6803 30.9337C39.9914 30.9337 41.8727 32.8149 41.8727 35.1261C41.8189 37.491 39.9377 39.3185 37.6803 39.3185ZM45.9576 27.87H45.3126V26.6875H45.9576V27.87ZM45.9576 24.7526H44.3451C43.8076 24.7526 43.3776 25.1826 43.3776 25.7201V28.8375C43.3776 29.375 43.8076 29.805 44.3451 29.805H45.9576V34.2124H43.6464C43.1626 31.3099 40.6902 29.1062 37.6265 29.1062C34.6166 29.1062 32.0904 31.3099 31.6067 34.2124H30.2629V23.4626H45.9576V24.7526Z" fill="#ADB2B2"/>
<path d="M37.6802 32.0085C35.9065 32.0085 34.5091 33.4598 34.5091 35.1797C34.5091 36.9534 35.9603 38.3509 37.6802 38.3509C39.4539 38.3509 40.8514 36.8997 40.8514 35.1797C40.8514 33.406 39.4002 32.0085 37.6802 32.0085ZM37.6802 36.4159C36.9815 36.4159 36.3903 35.8247 36.3903 35.126C36.3903 34.4272 36.9815 33.836 37.6802 33.836C38.379 33.836 38.9702 34.4272 38.9702 35.126C38.9165 35.8785 38.379 36.4159 37.6802 36.4159Z" fill="#ADB2B2"/>
<path d="M13.2246 32.0085C11.4509 32.0085 10.0534 33.4598 10.0534 35.1797C10.0534 36.9534 11.5047 38.3509 13.2246 38.3509C14.9983 38.3509 16.3958 36.8997 16.3958 35.1797C16.3958 33.406 14.9983 32.0085 13.2246 32.0085ZM13.2246 36.4159C12.5259 36.4159 11.9346 35.8247 11.9346 35.126C11.9346 34.4272 12.5259 33.836 13.2246 33.836C13.9233 33.836 14.5146 34.4272 14.5146 35.126C14.5146 35.8785 13.9233 36.4159 13.2246 36.4159Z" fill="#ADB2B2"/>
<path d="M36.0678 14.3252C35.7453 13.949 35.1003 13.8952 34.7241 14.2177L32.2517 16.3677C31.8217 16.7439 31.7679 17.3351 32.1442 17.7114C32.3591 17.9264 32.5741 18.0339 32.8429 18.0339C33.0579 18.0339 33.2729 17.9801 33.4879 17.8189L35.9603 15.6689C36.3366 15.3464 36.3903 14.7015 36.0678 14.3252Z" fill="#ADB2B2"/>
<path d="M38.4327 16.529C38.1102 16.1527 37.4653 16.099 37.089 16.4215L34.6166 18.5714C34.1866 18.8939 34.1328 19.4852 34.4553 19.8614C34.6703 20.0764 34.9391 20.2376 35.2078 20.2376C35.4228 20.2376 35.6378 20.1839 35.8528 20.0226L38.3252 17.8727C38.7015 17.5502 38.7552 16.9052 38.4327 16.529Z" fill="#ADB2B2"/>
</g>
<defs>
<clipPath id="clip0">
<rect width="48" height="48" fill="white"/>
</clipPath>
</defs>
</svg>
